<svg xmlns="http://www.w3.org/2000/svg" viewBox="0 0 512 512">
  <path fill="#ef4444" d="M317.57 45.52l11-24.75a14.77 14.77 0 10-26.99-12l-15.8 35.54h-59.57L210.42 8.77a14.77 14.77 0 00-27 12l11 24.75c-29.4 5.77-51.65 31.72-51.65 62.79v24.61h226.46v-24.61c0-31.06-22.25-57.02-51.66-62.8z"/>
  <path fill="#ef4444" d="M497.23 260.93H408.6v-30.71c44.59-7.1 78.77-45.82 78.77-92.37v-19.7a14.77 14.77 0 00-29.54 0v19.7c0 30.2-21.04 55.57-49.23 62.26v-13.03A24.64 24.64 0 00384 162.47H270.77v172.3a14.77 14.77 0 01-29.54 0v-172.3H128a24.64 24.64 0 00-24.61 24.6v13.04c-28.2-6.69-49.23-32.06-49.23-62.26v-19.7a14.77 14.77 0 00-29.54 0v19.7c0 46.55 34.18 85.26 78.77 92.37v30.7H14.77a14.77 14.77 0 000 29.54h88.62v30.71c-44.59 7.1-78.77 45.82-78.77 92.37v19.69a14.77 14.77 0 0029.53 0v-19.7c0-30.2 21.04-55.57 49.23-62.25v8.1C103.38 443.54 171.85 512 256 512s152.61-68.46 152.61-152.61v-8.11c28.2 6.69 49.23 32.05 49.23 62.26v19.7a14.77 14.77 0 0029.54 0v-19.7c0-46.55-34.18-85.27-78.77-92.37v-30.7h88.62a14.77 14.77 0 000-29.55z"/>
</svg>